<?xml version="1.0" standalone="no"?><!DOCTYPE svg PUBLIC "-//W3C//DTD SVG 1.1//EN" "http://www.w3.org/Graphics/SVG/1.1/DTD/svg11.dtd"><svg t="1679970961396" class="icon" viewBox="0 0 1024 1024" version="1.1" xmlns="http://www.w3.org/2000/svg" p-id="1994" xmlns:xlink="http://www.w3.org/1999/xlink" width="200" height="200"><path d="M314.058419 585.918512a188.130233 188.130233 0 0 0 58.772837 10.097116l8.334884-0.11907 2.048 59.51107a246.212465 246.212465 0 0 1-78.371721-9.978047l-9.835163-3.095814 19.051163-56.415255zM490.138791 558.627721c73.299349-59.010977 151.528186-61.916279 222.184186-31.339163 14.407442 6.239256 25.552372 12.621395 32.88707 17.669954l2.59572 1.80986-35.197023 48.032744-3.714977-2.476651a156.933953 156.933953 0 0 0-20.24186-10.406698c-50.223628-21.74214-103.30493-20.575256-155.624186 18.741582l-5.596279 4.381767c-8.596837 6.906047-23.337674 16.407814-43.412837 25.742884a270.764651 270.764651 0 0 1-39.697861 14.836093l-10.549581 2.786233-14.002605-57.867907a210.086698 210.086698 0 0 0 63.083163-26.86214l5.477209-3.691163 1.809861-1.357395zM688.580465 208.372093a29.767442 29.767442 0 0 1 3.048186 59.368186l-3.048186 0.166698H349.803163a29.767442 29.767442 0 0 1-3.048186-59.392l3.048186-0.142884h338.777302z" fill="#5AC2EE" p-id="1995"></path><path d="M598.277953 261.834419l35.101768-48.104186 5.477209 4.096a789.694512 789.694512 0 0 1 56.20093 46.556279c11.335442 10.35907 21.599256 20.48 30.505675 30.243721 22.813767 25.028465 36.435349 46.627721 38.149953 68.179348l0.190512 4.619907v529.503256c0 57.534512-44.579721 105.114791-100.613953 107.781954l-4.977117 0.119069H379.284837c-56.677209 0-102.876279-45.96093-105.472-102.852465l-0.095256-5.048558V367.449302c0-23.099535 13.883535-45.96093 38.340466-72.799255 8.882605-9.763721 19.146419-19.884651 30.48186-30.243721A789.694512 789.694512 0 0 1 384.833488 228.59014l9.549396-7.429954 9.858976-7.429953 35.077954 48.104186-5.810605 4.357953c-2.405209 1.80986-5.23907 4.000744-8.430139 6.501209l-3.333954 2.619535c-13.335814 10.549581-26.671628 21.74214-39.054883 33.029954-10.097116 9.216-19.074977 18.098605-26.671628 26.38586-8.07293 8.882605-14.288372 16.860279-18.360558 23.575814-2.714791 4.429395-4.024558 7.596651-4.33414 8.715907l-0.071442 0.404837v529.503256c0 25.504744 19.122605 46.389581 42.626977 48.24707l3.405395 0.11907h279.028093c23.933023 0 44.127256-19.717953 45.913303-44.770233l0.142883-3.572093V367.401674l-0.333395-1.119255a50.318884 50.318884 0 0 0-4.072186-8.025303 161.077581 161.077581 0 0 0-18.384372-23.552A414.529488 414.529488 0 0 0 654.883721 308.34307c-9.287442-8.453953-19.098791-16.884093-29.053023-25.004651l-10.001861-8.049117c-4.572279-3.595907-8.549209-6.667907-11.740279-9.09693l-5.834418-4.357953z" fill="#5AC2EE" p-id="1996"></path><path d="M624.163721 127.833302a29.767442 29.767442 0 0 1 43.436651 40.555163l-2.214698 2.381395-87.04 83.610791A29.767442 29.767442 0 0 1 534.861395 213.849302l2.214698-2.381395 87.04-83.586977zM314.058419 696.08186c19.765581 6.667907 39.364465 9.906605 58.749023 10.073303l8.334884-0.11907 2.143255 59.51107c-25.957209 0.952558-52.200186-2.214698-78.443162-9.954233l-9.835163-3.095814 19.051163-56.415256zM490.138791 668.79107c73.299349-59.010977 151.528186-61.916279 222.184186-31.339163 14.407442 6.239256 25.552372 12.621395 32.88707 17.669953l2.59572 1.833675-35.197023 48.00893-3.714977-2.476651a156.933953 156.933953 0 0 0-20.24186-10.406698c-50.223628-21.74214-103.30493-20.575256-155.624186 18.741582l-5.596279 4.381767c-8.596837 6.906047-23.337674 16.407814-43.412837 25.742884a270.764651 270.764651 0 0 1-39.697861 14.836093l-10.549581 2.786232-14.002605-57.867907a210.086698 210.086698 0 0 0 63.083163-26.862139l5.477209-3.691163 1.809861-1.357395zM442.24893 62.082977a38.269023 38.269023 0 1 0 0 76.538046 38.269023 38.269023 0 0 0 0-76.538046z m0 17.003163a21.26586 21.26586 0 1 1 0 42.53172 21.26586 21.26586 0 0 1 0-42.53172z" fill="#5AC2EE" p-id="1997"></path><path d="M510.309209 96.113116a38.269023 38.269023 0 1 0 0 76.538047 38.269023 38.269023 0 0 0 0-76.538047z m0 17.003163a21.26586 21.26586 0 1 1 0 42.531721 21.26586 21.26586 0 0 1 0-42.531721zM493.282233 11.049674a38.269023 38.269023 0 1 0 0 76.561861 38.269023 38.269023 0 0 0 0-76.561861z m0 17.026977a21.26586 21.26586 0 1 1 0 42.507907 21.26586 21.26586 0 0 1 0-42.507907z" fill="#5AC2EE" p-id="1998"></path></svg>